<?xml version="1.0" encoding="UTF-8"?><svg id="Capa_2" xmlns="http://www.w3.org/2000/svg" viewBox="0 0 170.17 170.17"><g id="Capa_1-2"><circle cx="85.09" cy="85.09" r="85.09" fill="#557eff"/><g id="ZodTik"><path d="M138.59,98.85c-1.41-.8-3.04-1.21-4.66-.95-.84.13-1.44.98-1.27,1.83.09.45.41.99.65,1.42.05.14-.5.27-.56.13l-2.65-5.68c-.74-1.58-1.68-2.99-2.84-4.28-.62-.69-1.54-1.06-2.44-1.13l-5.19-.41c-6.51-.51-12.94-.24-19.41.48-.94.11-1.59.68-2.12,1.34-.74.91-1.44,1.78-1.96,2.84l-3.35,6.89-.59-.11.65-1.25c.23-.45,0-1.21-.27-1.54-1.03-1.19-4.15-.47-5.52.43-.56.37-.4,1.28-.18,1.81.2.5.79.91,1.45,1.01l3.22.46c.91.13-.49,2-1.4,3.09-1.37,1.65-2.07,3.63-2.19,5.77-.07,1.32.24,2.54.39,3.84.19,1.7-.06,3.41-.02,5.13l.17,6.81c.02.78.54,1.44,1.35,1.44l4.85.04c.55,0,1.13-.49,1.17-1.05l.21-3.02h33.56s.23,2.93.23,2.93c.05.69.62,1.16,1.28,1.15l4.95-.06c.57,0,1-.78,1.04-1.34.25-3.59.21-7.11.11-10.72-.09-3.12,1.85-5.89-1.58-10.68l-1.81-2.53c-.09-.13-.13-.51-.03-.6.08-.07.31-.16.42-.18l3.83-.68c.88-.61,1.18-1.75.53-2.65ZM98.55,93.3c.33-.58.95-.83,1.58-.88l3.94-.36c6.31-.57,15.94-.34,22.34.5.32.33.6.68.83,1.08,1.24,2.18,2.28,4.41,2.86,6.98h-34.63c.71-2.6,1.74-5.01,3.08-7.34ZM134.39,108.63s0,.07,0,.1c-.49,1.23-.94,2.4-1.41,3.55-.3.54-.6,1.07-.91,1.6-.2.18-.42.32-.67.42-.11.02-.22.04-.31.04-2.01.07-4.02.13-6.03.14-.2,0-.4,0-.6,0-.8,0-1.26.19-1.57,1.01-.52,1.34-1.23,2.6-1.86,3.9-.38.8-.95,1.13-1.89,1.11-4.24-.11-8.49.07-12.73,0-1.14-.02-1.57-1.17-2.02-1.94-.62-1.06-1.11-2.2-1.59-3.34-.23-.55-.54-.75-1.12-.75-1.34.01-4.64,0-6.58,0-.92,0-1.76-.55-2.12-1.4-.06-.14-.13-.3-.2-.47-.54-1.29-1.03-2.59-1.58-3.97,2.97,0,5.61-.01,8.26.02.47,0,.54.31.66.56.75,1.47,1.47,2.95,2.16,4.45.24.51.52.74,1.13.74,6.31-.04,12.62-.05,18.92-.03.14,0,.26-.01.37-.04.4-.08.62-.32.81-.75.66-1.51,1.36-3,2.08-4.48.06-.12.15-.25.26-.36.08-.05.18-.08.32-.08,2.63-.04,5.26-.03,8.21-.02Z" fill="#fff"/></g><path d="M92.07,29.09c-13.93-4.99-29.13,1.04-36.04,13.72-7.06,12.96-3.61,28.89,8.19,37.92-20.07,7.7-33.03,26.65-32.99,47.67l9.21-.06c.07-23.15,18.77-41.52,41.6-41.61,14.49-.06,26.74-10.52,29.23-24.42,2.59-14.49-5.72-28.4-19.2-33.22ZM85.01,77.29c-11.08,1.61-21.42-6.06-23.15-17.05-1.76-11.16,5.84-21.84,17.38-23.47,11.44-1.62,21.58,6.46,23.12,17.48,1.55,11.12-6.29,21.43-17.35,23.04Z" fill="#fff"/><path d="M79.24,36.77c-11.54,1.63-19.14,12.31-17.38,23.47,1.73,10.98,12.07,18.66,23.15,17.05,11.06-1.61,18.9-11.92,17.35-23.04-1.54-11.02-11.68-19.1-23.12-17.48Z" fill="#557eff"/></g></svg>
