<?xml version="1.0" encoding="UTF-8"?><svg id="Capa_2" xmlns="http://www.w3.org/2000/svg" xmlns:xlink="http://www.w3.org/1999/xlink" viewBox="0 0 612 192.02"><defs><linearGradient id="Degradado_sin_nombre_15" x1="1579.21" y1="1308.68" x2="2191.21" y2="1308.68" gradientTransform="translate(2191.213 1380.6837) rotate(-180)" gradientUnits="userSpaceOnUse"><stop offset="0" stop-color="#557eff"/><stop offset="1" stop-color="#00dbd5"/></linearGradient><linearGradient id="Degradado_sin_nombre_30" x1="1579.21" y1="1286.95" x2="2191.21" y2="1286.95" gradientTransform="translate(2191.213 1380.6837) rotate(-180)" gradientUnits="userSpaceOnUse"><stop offset="0" stop-color="#00dbd5"/><stop offset="1" stop-color="#557eff"/></linearGradient><linearGradient id="Degradado_sin_nombre_30-2" y1="1311.71" x2="1738.81" y2="1311.71" xlink:href="#Degradado_sin_nombre_30"/><linearGradient id="Degradado_sin_nombre_30-3" x1="344.18" y1="-410.36" x2="629.89" y2="-357.34" gradientTransform="translate(-186.95 525.6)" xlink:href="#Degradado_sin_nombre_30"/></defs><g id="Capa_1-2"><polygon points="612 144.01 334.89 144.01 280.67 89.78 0 89.78 0 25.79 612 25.79 612 144.01" fill="#4d4e4e"/><polygon points="612 144.01 334.89 144.01 280.67 89.78 0 89.78 0 0 612 0 612 144.01" fill="url(#Degradado_sin_nombre_15)"/><polygon points="612 132.8 342.2 132.8 287 77.6 0 77.6 0 70.84 104.58 70.84 120.76 54.66 304.44 54.66 363.21 113.51 612 113.51 612 132.8" fill="url(#Degradado_sin_nombre_30)"/><polygon points="612 81.86 478.19 81.86 452.41 56.08 612 56.08 612 81.86" fill="url(#Degradado_sin_nombre_30-2)"/><polygon points="612 165.7 322.46 165.7 269.82 113.06 174.04 113.06 192.32 131.34 256.66 131.34 317.34 192.02 612 192.02 612 165.7" fill="#eef5ff"/><polygon points="612 179.23 319.17 179.23 263.06 123.11 198.9 123.11 189.49 113.7 269.82 113.7 322.46 165.7 612 165.7 612 179.23" fill="url(#Degradado_sin_nombre_30-3)"/></g></svg>